<svg width="24" height="24" viewBox="0 0 24 24" fill="none" xmlns="http://www.w3.org/2000/svg">
<rect width="24" height="24" rx="3" fill="#EEF0FE"/>
<path fill-rule="evenodd" clip-rule="evenodd" d="M13.4142 12L16.7072 8.70701C17.0982 8.31601 17.0982 7.68401 16.7072 7.29301C16.3162 6.90201 15.6843 6.90201 15.2933 7.29301L12.0002 10.586L8.70725 7.29301C8.31625 6.90201 7.68425 6.90201 7.29325 7.29301C6.90225 7.68401 6.90225 8.31601 7.29325 8.70701L10.5863 12L7.29325 15.293C6.90225 15.684 6.90225 16.316 7.29325 16.707C7.48825 16.902 7.74425 17 8.00025 17C8.25625 17 8.51225 16.902 8.70725 16.707L12.0002 13.414L15.2933 16.707C15.4883 16.902 15.7442 17 16.0002 17C16.2562 17 16.5122 16.902 16.7072 16.707C17.0982 16.316 17.0982 15.684 16.7072 15.293L13.4142 12Z" fill="#404040"/>
</svg>
