<svg width="24" height="24" viewBox="0 0 24 24" fill="none" xmlns="http://www.w3.org/2000/svg">
<rect width="24" height="24" rx="3" fill="#EEF0FE"/>
<path d="M12 10.4001C11.0972 10.4001 10.3636 11.1174 10.3636 12.0001C10.3636 12.8828 11.0972 13.6001 12 13.6001C12.9027 13.6001 13.6363 12.8828 13.6363 12.0001C13.6363 11.1174 12.9027 10.4001 12 10.4001Z" fill="#404040"/>
<path d="M12 8.00006C9.27272 8.00006 6.94364 9.65871 6 12.0001C6.94364 14.3414 9.27272 16.0001 12 16.0001C14.73 16.0001 17.0564 14.3414 18 12.0001C17.0564 9.65871 14.73 8.00006 12 8.00006ZM12 14.6667C10.4945 14.6667 9.27272 13.472 9.27272 12C9.27272 10.528 10.4945 9.33339 12 9.33339C13.5055 9.33339 14.7273 10.5281 14.7273 12.0001C14.7273 13.4721 13.5055 14.6667 12 14.6667Z" fill="#404040"/>
</svg>
