<svg width="60" height="24" viewBox="0 0 60 24" fill="none" xmlns="http://www.w3.org/2000/svg">
<rect width="60" height="24" rx="3" fill="#EEF0FE"/>
<path fill-rule="evenodd" clip-rule="evenodd" d="M31.4142 12L34.7072 8.70701C35.0982 8.31601 35.0982 7.68401 34.7072 7.29301C34.3162 6.90201 33.6843 6.90201 33.2933 7.29301L30.0002 10.586L26.7072 7.29301C26.3162 6.90201 25.6842 6.90201 25.2932 7.29301C24.9022 7.68401 24.9022 8.31601 25.2932 8.70701L28.5863 12L25.2932 15.293C24.9022 15.684 24.9022 16.316 25.2932 16.707C25.4882 16.902 25.7442 17 26.0002 17C26.2562 17 26.5123 16.902 26.7072 16.707L30.0002 13.414L33.2933 16.707C33.4883 16.902 33.7442 17 34.0002 17C34.2562 17 34.5122 16.902 34.7072 16.707C35.0982 16.316 35.0982 15.684 34.7072 15.293L31.4142 12Z" fill="#404040"/>
</svg>
