<svg width="16" height="16" viewBox="0 0 16 16" fill="none" xmlns="http://www.w3.org/2000/svg">
<path d="M13.5606 3.8106L12.1894 2.43927C11.908 2.15795 11.5265 1.99994 11.1287 1.99994H10.25V4.62494C10.25 4.83203 10.0821 4.99994 9.875 4.99994H3.875C3.66791 4.99994 3.5 4.83203 3.5 4.62494V1.99994H2.75C2.33581 1.99994 2 2.3357 2 2.74994V13.2499C2 13.6642 2.33581 13.9999 2.75 13.9999H13.25C13.6642 13.9999 14 13.6642 14 13.2499V4.87127C14 4.47342 13.842 4.0919 13.5606 3.8106ZM12.5 12.4999H3.5V7.99994H12.5V12.4999Z" fill="white"/>
<path d="M8.75001 1.99994H7.25001V4.24994H8.75001V1.99994Z" fill="white"/>
</svg>
