<svg width="16" height="16" viewBox="0 0 16 16" fill="none" xmlns="http://www.w3.org/2000/svg">
<path d="M7.99996 6.4001C7.09722 6.4001 6.3636 7.11743 6.3636 8.0001C6.3636 8.88277 7.09722 9.6001 7.99996 9.6001C8.90269 9.6001 9.63631 8.88277 9.63631 8.0001C9.63631 7.11743 8.90266 6.4001 7.99996 6.4001Z" fill="#404040"/>
<path d="M8 4.00006C5.27272 4.00006 2.94364 5.65871 2 8.00006C2.94364 10.3414 5.27272 12.0001 8 12.0001C10.73 12.0001 13.0564 10.3414 14 8.00006C13.0564 5.65871 10.73 4.00006 8 4.00006ZM8 10.6667C6.49455 10.6667 5.27272 9.47204 5.27272 8.00004C5.27272 6.52804 6.49455 5.33339 8 5.33339C9.50545 5.33339 10.7273 6.52806 10.7273 8.00006C10.7273 9.47206 9.50545 10.6667 8 10.6667Z" fill="#404040"/>
</svg>
