<svg width="16" height="17" viewBox="0 0 16 17" fill="none" xmlns="http://www.w3.org/2000/svg">
<path fill-rule="evenodd" clip-rule="evenodd" d="M7 8.5V7.5H10C10.5523 7.5 11 7.05228 11 6.5C11 5.94772 10.5523 5.5 10 5.5H6C5.44772 5.5 5 5.94772 5 6.5V9.5C5 10.0523 5.44772 10.5 6 10.5H11C12.6569 10.5 14 9.15685 14 7.5V5.5C14 3.84315 12.6569 2.5 11 2.5H5C3.34315 2.5 2 3.84315 2 5.5V10.5C2 12.1569 3.34315 13.5 5 13.5H11C11.5523 13.5 12 13.0523 12 12.5C12 11.9477 11.5523 11.5 11 11.5H5C4.44772 11.5 4 11.0523 4 10.5V5.5C4 4.94772 4.44772 4.5 5 4.5H11C11.5523 4.5 12 4.94772 12 5.5V7.5C12 8.05228 11.5523 8.5 11 8.5H7Z" fill="#5668F6"/>
</svg>
