<svg width="20" height="20" viewBox="0 0 20 20" fill="none" xmlns="http://www.w3.org/2000/svg">
<path fill-rule="evenodd" clip-rule="evenodd" d="M11.9796 10.0001L16.5897 5.38989C17.1371 4.84249 17.1371 3.9577 16.5897 3.4103C16.0423 2.86291 15.1575 2.86291 14.6101 3.4103L10 8.02047L5.38987 3.4103C4.84248 2.86291 3.95769 2.86291 3.4103 3.4103C2.86291 3.9577 2.86291 4.84249 3.4103 5.38989L8.02043 10.0001L3.4103 14.6102C2.86291 15.1576 2.86291 16.0424 3.4103 16.5898C3.6833 16.8628 4.04169 17 4.40009 17C4.75848 17 5.11688 16.8628 5.38987 16.5898L10 11.9796L14.6101 16.5898C14.8831 16.8628 15.2415 17 15.5999 17C15.9583 17 16.3167 16.8628 16.5897 16.5898C17.1371 16.0424 17.1371 15.1576 16.5897 14.6102L11.9796 10.0001Z" fill="#5668F6"/>
</svg>
