<svg width="20" height="20" viewBox="0 0 20 20" fill="none" xmlns="http://www.w3.org/2000/svg">
<path fill-rule="evenodd" clip-rule="evenodd" d="M11.9797 10.0001L16.5898 5.38989C17.1372 4.84249 17.1372 3.9577 16.5898 3.4103C16.0424 2.86291 15.1576 2.86291 14.6102 3.4103L10.0001 8.02047L5.38996 3.4103C4.84257 2.86291 3.95778 2.86291 3.41039 3.4103C2.863 3.9577 2.863 4.84249 3.41039 5.38989L8.02053 10.0001L3.41039 14.6102C2.863 15.1576 2.863 16.0424 3.41039 16.5898C3.68339 16.8628 4.04178 17 4.40018 17C4.75857 17 5.11697 16.8628 5.38996 16.5898L10.0001 11.9796L14.6102 16.5898C14.8832 16.8628 15.2416 17 15.6 17C15.9584 17 16.3168 16.8628 16.5898 16.5898C17.1372 16.0424 17.1372 15.1576 16.5898 14.6102L11.9797 10.0001Z" fill="#5668F6"/>
</svg>
