<svg width="24" height="24" viewBox="0 0 24 24" fill="none" xmlns="http://www.w3.org/2000/svg">
<rect width="24" height="24" rx="3" fill="#EEF0FE"/>
<path fill-rule="evenodd" clip-rule="evenodd" d="M14 6C14.5523 6 15 6.44772 15 7V8H18C18.5523 8 19 8.44772 19 9C19 9.55228 18.5523 10 18 10H17V15C17 16.6569 15.8807 18 14.5 18H9.5C8.11929 18 7 16.6569 7 15V10H6C5.44772 10 5 9.55228 5 9C5 8.44772 5.44772 8 6 8H9V7C9 6.44772 9.44772 6 10 6H14ZM10 10C9.48716 10 9.06449 10.386 9.00673 10.8834L9 11V15C9 15.5523 9.44772 16 10 16C10.5128 16 10.9355 15.614 10.9933 15.1166L11 15V11C11 10.4477 10.5523 10 10 10ZM14 10C13.4872 10 13.0645 10.386 13.0067 10.8834L13 11V15C13 15.5523 13.4477 16 14 16C14.5128 16 14.9355 15.614 14.9933 15.1166L15 15V11C15 10.4477 14.5523 10 14 10Z" fill="#404040"/>
</svg>
