<svg width="16" height="16" viewBox="0 0 16 16" fill="none" xmlns="http://www.w3.org/2000/svg">
<path fill-rule="evenodd" clip-rule="evenodd" d="M12 2C13.1046 2 14 2.89543 14 4V12C14 13.1046 13.1046 14 12 14H4C2.89543 14 2 13.1046 2 12V4C2 2.89543 2.89543 2 4 2H12ZM7 9H4V12H7V9ZM12 9H9V12H12V9ZM7 4H4V7H7V4ZM12 4H9V7H12V4Z" fill="url(#paint0_linear_203_2407)"/>
<defs>
<linearGradient id="paint0_linear_203_2407" x1="2" y1="14" x2="14" y2="2" gradientUnits="userSpaceOnUse">
<stop stop-color="#5668F6"/>
<stop offset="1" stop-color="#CC56F6"/>
</linearGradient>
</defs>
</svg>
