<svg width="16" height="16" viewBox="0 0 16 16" fill="none" xmlns="http://www.w3.org/2000/svg">
<path d="M14.713 4.77044C14.5308 4.69032 14.318 4.73005 14.1774 4.87018L12.7508 6.29047L10.1483 5.83212L9.68787 3.23984L11.1146 1.81957C11.255 1.67942 11.295 1.46766 11.2147 1.28618C11.1345 1.10493 10.9499 0.991117 10.7515 1.00054C9.77926 1.04577 8.82089 1.4367 8.07813 2.1767C6.93755 3.31229 6.62226 4.95354 7.12204 6.37378L1.52578 11.9489C0.82474 12.6467 0.82474 13.7785 1.52578 14.4766C1.86195 14.8116 2.31821 15 2.79435 15C3.27003 15 3.7267 14.8116 4.06287 14.4768L9.68695 8.87515C11.0937 9.3321 12.7008 9.0077 13.8181 7.89407C14.5609 7.15447 14.9536 6.20016 14.9995 5.232C15.0083 5.03414 14.8952 4.85078 14.713 4.77044ZM3.66599 13.4105C3.37066 13.7047 2.89123 13.7047 2.5959 13.4105C2.30005 13.1159 2.30005 12.6388 2.5959 12.3442C2.89123 12.0501 3.37066 12.0501 3.66599 12.3442C3.96138 12.6388 3.96138 13.1159 3.66599 13.4105Z" fill="#404040"/>
</svg>
